<?xml version="1.0" standalone="no"?>
<!DOCTYPE svg PUBLIC "-//W3C//DTD SVG 20010904//EN"
 "http://www.w3.org/TR/2001/REC-SVG-20010904/DTD/svg10.dtd">
<svg version="1.0" xmlns="http://www.w3.org/2000/svg"
 width="1024.000000pt" height="1024.000000pt" viewBox="0 0 1024.000000 1024.000000"
 preserveAspectRatio="xMidYMid meet">
<metadata>
Created by potrace 1.14, written by Peter Selinger 2001-2017
</metadata>
<g transform="translate(0.000000,1024.000000) scale(0.100000,-0.100000)"
fill="#000000" stroke="none">
<path d="M0 5120 l0 -5120 5120 0 5120 0 0 5120 0 5120 -5120 0 -5120 0 0
-5120z m5590 3756 c445 -63 778 -162 1155 -346 652 -319 1148 -753 1541 -1350
331 -503 542 -1057 619 -1625 36 -260 31 -714 -11 -1020 -29 -214 -116 -572
-187 -770 -119 -334 -295 -666 -504 -953 -213 -292 -508 -593 -788 -804 -484
-364 -1051 -615 -1625 -717 -225 -41 -385 -54 -645 -55 -601 -1 -1134 126
-1695 405 -417 208 -751 452 -1059 775 -531 557 -882 1261 -1005 2017 -44 275
-51 359 -51 667 1 254 4 317 23 450 96 653 319 1213 693 1742 128 181 218 288
396 471 244 251 486 440 788 615 479 279 978 444 1527 507 166 19 666 13 828
-9z"/>
<path d="M4830 8644 c-978 -105 -1840 -568 -2431 -1304 -358 -445 -590 -908
-718 -1433 -70 -283 -96 -511 -96 -822 2 -759 200 -1425 605 -2030 230 -343
586 -704 923 -935 385 -264 860 -472 1287 -564 280 -60 381 -70 725 -71 347 0
410 6 710 66 717 143 1442 564 1946 1129 586 656 899 1493 899 2399 0 226 -11
365 -45 577 -99 617 -386 1228 -814 1739 -546 650 -1313 1086 -2148 1221 -272
43 -599 55 -843 28z m270 -354 c0 -27 -3 -50 -7 -50 -5 0 -55 -7 -113 -15
-243 -35 -538 -132 -765 -254 -338 -181 -619 -432 -808 -722 -52 -80 -137
-238 -137 -255 0 -4 15 6 33 23 36 34 188 148 221 165 12 6 -26 -38 -85 -98
-240 -248 -430 -541 -549 -845 -40 -103 -45 -132 -15 -86 17 27 165 161 149
137 -5 -9 -35 -50 -66 -92 -133 -177 -261 -392 -345 -577 -23 -53 -43 -93 -43
-89 0 22 68 302 96 396 163 539 526 1240 829 1601 187 222 380 373 715 559
188 104 529 210 775 241 123 15 115 18 115 -39z m275 24 c472 -78 961 -333
1290 -675 213 -221 401 -508 615 -938 190 -381 308 -696 381 -1015 16 -70 29
-131 29 -135 0 -3 -27 49 -59 116 -96 198 -212 385 -349 563 l-66 85 88 -79
c48 -44 92 -88 97 -99 6 -10 13 -17 15 -14 15 14 -161 388 -243 517 -109 172
-166 244 -363 459 l-95 105 110 -84 c61 -45 122 -94 138 -108 25 -24 27 -24
27 -6 0 24 -82 169 -161 285 -185 271 -515 551 -834 711 -239 120 -567 216
-790 230 l-40 3 -3 53 -3 53 63 -6 c35 -4 104 -13 153 -21z m-1105 -2679 c88
-21 252 -103 325 -162 66 -53 151 -159 161 -200 11 -40 -7 -74 -51 -97 -86
-45 -371 -18 -566 55 -195 71 -382 198 -424 285 -16 35 -16 37 2 63 24 31 88
57 175 70 85 13 298 5 378 -14z m2080 16 c101 -13 151 -30 183 -62 38 -39 31
-68 -31 -132 -172 -177 -494 -300 -787 -301 -131 0 -170 11 -201 59 -15 23
-15 29 0 68 62 163 316 332 551 366 80 11 205 12 285 2z m659 -532 c-34 -220
-163 -462 -344 -645 -120 -122 -245 -197 -388 -234 -40 -10 -61 -19 -47 -19
38 -2 101 -42 127 -80 14 -21 23 -49 23 -74 0 -108 -174 -494 -328 -727 -150
-227 -292 -369 -447 -448 -300 -151 -747 -132 -1021 43 -130 83 -312 291 -428
487 -73 124 -165 312 -211 428 -80 203 -84 249 -29 310 22 24 52 45 76 52 l40
12 -59 16 c-292 80 -566 368 -683 718 -29 88 -54 225 -38 216 4 -3 8 -14 8
-25 0 -24 58 -175 95 -250 126 -248 362 -473 580 -553 66 -24 101 -30 198 -34
192 -8 268 15 549 165 86 46 194 98 240 116 78 29 91 31 213 31 124 0 134 -1
210 -33 44 -18 147 -69 229 -114 267 -145 354 -172 536 -165 138 5 246 38 371
114 212 129 434 427 511 689 12 41 23 73 25 72 1 -2 -2 -32 -8 -68z"/>
<path d="M4856 4219 c-37 -29 -37 -89 0 -118 35 -28 65 -26 98 4 34 32 35 77
1 110 -30 30 -64 32 -99 4z"/>
<path d="M5323 4230 c-47 -19 -57 -87 -18 -125 13 -14 36 -25 50 -25 60 0 100
94 58 133 -24 21 -63 28 -90 17z"/>
<path d="M4635 3855 c-14 -13 -25 -34 -25 -45 0 -29 26 -76 45 -84 9 -3 225
-6 479 -6 454 0 464 0 490 21 35 28 36 80 1 114 l-24 25 -471 0 -471 0 -24
-25z"/>
<path d="M4663 3543 c-53 -10 -69 -83 -29 -130 l24 -27 468 2 c433 3 471 4
494 21 27 19 35 48 25 88 -12 51 -35 53 -517 52 -244 -1 -453 -4 -465 -6z"/>
<path d="M4650 3197 c-39 -20 -48 -61 -25 -105 l20 -37 476 -3 476 -2 26 24
c35 33 36 74 1 107 l-26 24 -461 3 c-358 1 -468 -1 -487 -11z"/>
</g>
</svg>
